<svg width="56" height="56" xmlns="http://www.w3.org/2000/svg"><defs><linearGradient x1="50%" y1="0%" x2="50%" y2="100%" id="linearGradient-1"><stop stop-color="red" stop-opacity=".186" offset="0%"/><stop stop-color="red" stop-opacity=".706" offset="100%"/></linearGradient></defs><g id="btn-widget-default" stroke="none" stroke-width="1" fill="none" fill-rule="evenodd"><circle id="Oval" fill="url(#linearGradient-1)" cx="42" cy="14" r="14"/><path d="M50 4a2 2 0 012 2v44a2 2 0 01-2 2H6a2 2 0 01-2-2V6a2 2 0 012-2h44zm-1.2 3.2H7.2v41.6h41.6V7.2zm-5.165 4.405a1.6 1.6 0 012.112 2.4L30.798 28.5l14.95 14.496a1.6 1.6 0 01-2.113 2.4l-.115-.103L28.5 30.73 13.48 45.293l-.115.102a1.6 1.6 0 01-2.112-2.4L26.2 28.5 11.253 14.004a1.6 1.6 0 012.112-2.4l.115.103L28.5 26.27l15.02-14.563z" id="Combined-Shape" fill="#313131"/></g></svg>