<svg xmlns="http://www.w3.org/2000/svg" width="40" height="40"><g fill="none" fill-rule="evenodd" transform="translate(4.286 2.143)"><path fill="#313131" d="M28.929 15.536c.946 0 1.721.737 1.781 1.668l.004.117v9.822a8.93 8.93 0 01-8.708 8.926l-.22.002H5.714a1.785 1.785 0 01-.117-3.567l.117-.004h16.072c2.9 0 5.263-2.305 5.354-5.184l.003-.173v-8.037H3.929v8.037c0 .947-.737 1.721-1.669 1.782l-.117.004A1.786 1.786 0 01.361 27.26l-.004-.117V17.32c0-.946.737-1.721 1.668-1.781l.118-.004h26.786z"/><path fill="#EB2629" d="M15.536.357c6.41 0 11.607 5.197 11.607 11.607a1.786 1.786 0 11-3.572 0 8.034 8.034 0 00-8.035-8.035A8.035 8.035 0 007.5 11.964a1.786 1.786 0 11-3.571 0C3.929 5.554 9.125.357 15.536.357z"/><circle cx="15.536" cy="25.357" r="1.786" fill="#EB2629"/></g></svg>