<svg width="18" height="22" xmlns="http://www.w3.org/2000/svg"><defs><linearGradient x1="13.368%" y1="39.517%" x2="87.636%" y2="59.664%" id="linearGradient-1"><stop stop-color="#F14545" offset="0%"/><stop stop-color="#C41432" offset="100%"/></linearGradient></defs><g id="Page-1" stroke="none" stroke-width="1" fill="none" fill-rule="evenodd"><g id="molecules/widget" transform="translate(-19 -13)"><g id="brand/icon/content/32/general/calculator" transform="translate(16 12)"><g id="calculator" transform="translate(3 1.5)"><path d="M16.5 0A1.5 1.5 0 0118 1.5v18a1.5 1.5 0 01-1.5 1.5h-15A1.5 1.5 0 010 19.5v-18A1.5 1.5 0 011.5 0h15zm0 1.2h-15a.3.3 0 00-.294.24L1.2 1.5v18a.3.3 0 00.24.294l.06.006h15a.3.3 0 00.294-.24l.006-.06v-18a.3.3 0 00-.24-.294L16.5 1.2zM5.25 11.25A.75.75 0 016 12v2.25a.75.75 0 01-.75.75H3a.75.75 0 01-.75-.75V12a.75.75 0 01.75-.75h2.25zm4.875 0a.75.75 0 01.75.75v2.25a.75.75 0 01-.75.75h-2.25a.75.75 0 01-.75-.75V12a.75.75 0 01.75-.75h2.25zM4.8 12.45H3.45v1.35H4.8v-1.35zm4.875 0h-1.35v1.35h1.35v-1.35zM5.25 6.75A.75.75 0 016 7.5v2.25a.75.75 0 01-.75.75H3a.75.75 0 01-.75-.75V7.5A.75.75 0 013 6.75h2.25zm4.875 0a.75.75 0 01.75.75v2.25a.75.75 0 01-.75.75h-2.25a.75.75 0 01-.75-.75V7.5a.75.75 0 01.75-.75h2.25zm4.875 0a.75.75 0 01.75.75v2.25a.75.75 0 01-.75.75h-2.25a.75.75 0 01-.75-.75V7.5a.75.75 0 01.75-.75H15zM4.8 7.95H3.45V9.3H4.8V7.95zm4.875 0h-1.35V9.3h1.35V7.95zm4.875 0H13.2V9.3h1.35V7.95zm.45-5.7a.75.75 0 01.75.75v2.25A.75.75 0 0115 6H3a.75.75 0 01-.75-.75V3A.75.75 0 013 2.25h12zm-.45 1.2H3.45V4.8h11.1V3.45z" id="Combined-Shape" fill="#313131"/><path d="M15 11.25a.75.75 0 01.75.75v6a.75.75 0 01-.75.75h-2.25A.75.75 0 0112 18v-6a.75.75 0 01.75-.75H15zm-9.75 4.5a.75.75 0 01.75.75V18a.75.75 0 01-.75.75H3a.75.75 0 01-.75-.75v-1.5a.75.75 0 01.75-.75h2.25zm4.875 0a.75.75 0 01.75.75V18a.75.75 0 01-.75.75h-2.25a.75.75 0 01-.75-.75v-1.5a.75.75 0 01.75-.75h2.25zm4.425-3.3H13.2v5.1h1.35v-5.1zm-9.75 4.5H3.45v.6H4.8v-.6zm4.875 0h-1.35v.6h1.35v-.6z" id="Combined-Shape" fill="url(#linearGradient-1)"/></g></g></g></g></svg>