<svg width="22" height="18" xmlns="http://www.w3.org/2000/svg"><defs><linearGradient x1="18.14%" y1="16.036%" x2="82.734%" y2="81.312%" id="linearGradient-1"><stop stop-color="#F14545" offset="0%"/><stop stop-color="#C41432" offset="100%"/></linearGradient></defs><g id="Page-1" stroke="none" stroke-width="1" fill="none" fill-rule="evenodd"><g id="molecules/widget" transform="translate(-17 -15)"><g id="brand/icon/content/32/general/e-channel" transform="translate(16 12)"><g id="e-channel" transform="translate(1.5 3)"><path d="M9.036 0c.144 0 .287.007.427.02 3.205.208 6.017 2.042 7.422 4.808a.6.6 0 01-1.07.544 7.527 7.527 0 00-2.706-2.956c.505.804.881 1.796 1.091 2.952a.6.6 0 11-1.18.214c-.48-2.642-1.877-4.147-3.57-4.357v3.65h2.4a.6.6 0 01.075 1.195l-.075.005h-2.4v5.55h.15a.6.6 0 01.075 1.195l-.075.005h-.15l.001 3.656a8.708 8.708 0 002.91-.682.6.6 0 01.478 1.102 9.95 9.95 0 01-3.502.788.353.353 0 01-.037.006l-.075.005h-.187l-.074-.002-.114.002C3.954 17.7.013 13.75 0 8.84A8.787 8.787 0 018.819 0h.217zM8.25 12.825l-2.693.001c.598 1.801 1.58 3.101 2.694 3.525l-.001-3.526zm-3.95 0H2.314a7.647 7.647 0 003.463 3.036c-.622-.809-1.128-1.846-1.479-3.035zm3.95-1.2v-5.55H5.233A13.411 13.411 0 004.95 8.85c0 .983.101 1.919.283 2.776l3.017-.001zm-4.242-5.55H1.702A7.672 7.672 0 001.2 8.838c.003.985.188 1.925.523 2.788h2.286A14.713 14.713 0 013.75 8.85c0-.967.09-1.9.258-2.774zm4.242-1.2V1.348c-1.114.423-2.097 1.724-2.694 3.527H8.25zM5.796 1.814l-.011.006a7.58 7.58 0 00-3.5 3.055H4.3c.354-1.202.866-2.249 1.497-3.061z" id="Combined-Shape" fill="#313131"/><path d="M14.475 6.6a4.125 4.125 0 012.966 6.992l2.938 2.926a.6.6 0 01-.78.908l-.067-.058-3.005-2.993-.04-.048A4.125 4.125 0 1114.475 6.6zm0 1.138a2.987 2.987 0 100 5.974 2.987 2.987 0 000-5.974z" id="Combined-Shape" fill="url(#linearGradient-1)"/></g></g></g></g></svg>