<svg width="21" height="20" xmlns="http://www.w3.org/2000/svg"><defs><linearGradient x1="13.368%" y1="35.68%" x2="87.636%" y2="63.202%" id="linearGradient-1"><stop stop-color="#F14545" offset="0%"/><stop stop-color="#C41432" offset="100%"/></linearGradient></defs><g id="Page-1" stroke="none" stroke-width="1" fill="none" fill-rule="evenodd"><g id="molecules/widget-copy-2" transform="translate(-18 -14)"><g id="brand/icon/content/32/general/event" transform="translate(16 12)"><g id="event" transform="translate(2.25 2.25)"><path d="M14.85 0a.6.6 0 01.595.525L15.45.6l-.001.896h1.865c.99 0 1.805.748 1.88 1.706l.006.145v7.682a5.264 5.264 0 00-1.2-.85V6.544H1.2v9.304c0 .323.25.595.583.642l.103.008h8.727c.141.427.336.83.575 1.2H1.886c-.99 0-1.805-.748-1.88-1.705L0 15.847v-12.5c0-.977.769-1.771 1.739-1.845l.147-.005 1.863-.001L3.75.6A.6.6 0 014.945.525L4.95.6l-.001.896h9.3L14.25.6a.6.6 0 01.6-.6zM3.749 2.696H1.886a.675.675 0 00-.679.555l-.007.096v1.996H18V3.347a.662.662 0 00-.583-.643l-.103-.007-1.865-.001.001.9a.6.6 0 01-1.195.076l-.005-.075-.001-.901h-9.3l.001.9a.6.6 0 01-1.195.076l-.005-.075-.001-.901z" id="Combined-Shape" fill="#313131"/><path d="M15.6 10.35a4.5 4.5 0 110 9 4.5 4.5 0 010-9zm0 1.2a3.3 3.3 0 100 6.6 3.3 3.3 0 000-6.6zm1.877 2.083a.6.6 0 01.137.777l-.047.067-1.815 2.25a.6.6 0 01-.848.087l-.06-.057-1.185-1.284a.6.6 0 01.817-.875l.065.061.713.773 1.379-1.709a.6.6 0 01.844-.09zm-7.127-2.386a.6.6 0 01.075 1.195l-.075.005h-1.5a.6.6 0 01-.075-1.196l.075-.004h1.5zm-5.25 0a.6.6 0 01.075 1.195l-.075.005H3.6a.6.6 0 01-.075-1.196l.075-.004h1.5zm0-3a.6.6 0 01.075 1.195l-.075.005H3.6a.6.6 0 01-.075-1.196l.075-.004h1.5zm5.25 0a.6.6 0 01.075 1.195l-.075.005h-1.5a.6.6 0 01-.075-1.196l.075-.004h1.5zm5.25 0a.6.6 0 01.075 1.195l-.075.005h-1.5a.6.6 0 01-.075-1.196l.075-.004h1.5z" id="Combined-Shape" fill="url(#linearGradient-1)"/></g></g></g></g></svg>