<svg width="22" height="21" xmlns="http://www.w3.org/2000/svg"><defs><linearGradient x1="14.365%" y1="16.036%" x2="86.612%" y2="81.312%" id="linearGradient-1"><stop stop-color="#F14545" offset="0%"/><stop stop-color="#C41432" offset="100%"/></linearGradient></defs><g id="Page-1" stroke="none" stroke-width="1" fill="none" fill-rule="evenodd"><g id="molecules/widget-copy" transform="translate(-17 -14)"><g id="widget"><g id="brand/icon/content/32/general/promo" transform="translate(16 12)"><g id="promo" transform="translate(1.5 2.25)"><path d="M14.788.175l1.73 1.451c.67-.133 1.336-.16 1.829-.092 1.401.192 3.143 1.038 2.89 3.31-.22 1.97-2.24 2.385-3.678 2.156l-.272 1.145-9.643 11.492a.75.75 0 01-1.056.092l-6.32-5.303a.75.75 0 01-.093-1.056L9.818 1.878l4.19-1.816a.75.75 0 01.78.113zm-.56 1.099l-3.674 1.592-9.17 10.93 5.63 4.725 9.17-10.93.225-.945a6.697 6.697 0 01-1.3-.739 1.875 1.875 0 11-.44-3.543c.152-.11.323-.21.504-.298l-.944-.792zm3.564 1.42l.306.259a.75.75 0 01.248.748l-.51 2.14c1.085.17 2.112-.269 2.208-1.13.127-1.143-.509-1.762-1.713-1.966l-.147-.022a3.342 3.342 0 00-.392-.03zm-1.919.371l-.05.023a1.876 1.876 0 01.165 1.974c.207.141.445.276.704.397l.421-1.765-.9-.754a4.22 4.22 0 00-.34.125zm-2.047.68l-.017.019a.675.675 0 00.297 1.084 1.921 1.921 0 01-.28-1.103z" id="Combined-Shape" fill="#313131"/><path d="M10.477 10.992a1.125 1.125 0 110 2.25 1.125 1.125 0 010-2.25zm.074-2.099a.563.563 0 01.05.738l-.05.058-2.652 2.651a.562.562 0 01-.846-.737l.05-.058 2.652-2.652c.22-.22.576-.22.796 0zm-.074 2.849a.375.375 0 100 .75.375.375 0 000-.75zm-3.15-3.975a1.125 1.125 0 110 2.25 1.125 1.125 0 010-2.25zm0 .75a.375.375 0 100 .75.375.375 0 000-.75z" id="Combined-Shape" fill="url(#linearGradient-1)" transform="rotate(-30 8.902 10.504)"/></g></g></g></g></g></svg>