<svg width="20" height="22" xmlns="http://www.w3.org/2000/svg"><defs><linearGradient x1="13.368%" y1="16.04%" x2="87.636%" y2="81.309%" id="linearGradient-1"><stop stop-color="#F14545" offset="0%"/><stop stop-color="#C41432" offset="100%"/></linearGradient></defs><g id="Page-1" stroke="none" stroke-width="1" fill="none" fill-rule="evenodd"><g id="molecules/widget-copy-3" transform="translate(-19 -13)"><g id="brand/icon/content/32/general/campaign" transform="translate(16 12)"><g id="campaign" transform="translate(2.99 1.819)"><path d="M8.212 3.336c-.08-.57.611-.916 1.019-.509l7.42 7.42c.407.408.064 1.098-.506 1.02a4.293 4.293 0 00-.257-.026l-.3-.016a9.326 9.326 0 00-1.424.054c-1.36.158-2.526.606-3.346 1.41l-2.12 2.12c-.04.04-.081.077-.124.11a.746.746 0 01-.086.955l-.608.607 2.818 1.631a.6.6 0 01.186.87l-.062.074-1.415 1.414a.6.6 0 01-.725.095l-3.094-1.792-.282.283a.75.75 0 01-1.06 0l-.319-.319.019.019a3.53 3.53 0 00-.189.156l-.095.09c-.732.733-2.038.614-2.917-.265-.846-.846-.987-2.088-.343-2.833l.168-.179c.056-.062.107-.125.157-.188l-.194-.194a.75.75 0 010-1.06L3.715 11.1a.75.75 0 01.82-.162l.035-.048.099-.11L6.79 8.66c.816-.817 1.266-1.986 1.419-3.354a9.265 9.265 0 00.023-1.795zM7.136 17.438l-.535.535 2.284 1.322.536-.536-2.285-1.321zm-6.39-1.883l.834.835-.033.041a3.607 3.607 0 01-.218.238c-.226.226-.176.78.265 1.22.44.44.994.49 1.22.265.091-.092.175-.167.277-.25l.836.833-3.182-3.182zm3.499-3.288l-2.546 2.545 3.076 3.076 2.546-2.545-3.076-3.076zm5.209-7.52l-.021.362-.032.33c-.18 1.616-.725 3.032-1.763 4.07l-2.12 2.12a.15.15 0 00-.001.213l2.12 2.12a.15.15 0 00.212 0l2.125-2.126c1.043-1.022 2.451-1.563 4.052-1.749.223-.026.444-.044.66-.055l.05-.002-5.282-5.282z" id="Combined-Shape" fill="#313131"/><path d="M11.701 4.605c.745-.645 1.987-.503 2.834.343.878.879.997 2.185.265 2.917l-.09.095a3.53 3.53 0 00-.157.189l-.018-.019-.835-.837a4.15 4.15 0 01.251-.277c.226-.226.176-.779-.265-1.22-.44-.44-.994-.49-1.22-.265-.08.08-.153.147-.238.219l-.041.032-.834-.834-.02-.018c.064-.05.127-.101.19-.157zm1.878-2.484c.194 0 .489.042.852.163a4.34 4.34 0 011.693 1.073c.531.531.878 1.11 1.072 1.692.121.363.163.659.163.852a.6.6 0 01-1.193.089l-.007-.089c0-.071-.024-.24-.101-.473a3.134 3.134 0 00-.783-1.223 3.134 3.134 0 00-1.223-.782 1.951 1.951 0 00-.436-.1l-.037-.002a.6.6 0 010-1.2zM14.725.006c.209.03.54.123.959.313.672.306 1.361.777 2.032 1.448.67.67 1.142 1.36 1.448 2.032.19.419.283.75.312.959a.6.6 0 01-1.17.25l-.017-.08a2.74 2.74 0 00-.218-.632c-.247-.544-.637-1.114-1.204-1.68-.567-.568-1.137-.958-1.68-1.205a3.01 3.01 0 00-.589-.21l-.043-.007a.6.6 0 11.17-1.188z" id="Combined-Shape" fill="url(#linearGradient-1)"/></g></g></g></g></svg>