<svg width="19" height="21" xmlns="http://www.w3.org/2000/svg"><defs><linearGradient x1="37.136%" y1="16.036%" x2="63.217%" y2="81.312%" id="linearGradient-1"><stop stop-color="#F14545" offset="0%"/><stop stop-color="#C41432" offset="100%"/></linearGradient></defs><g id="Page-1" stroke="none" stroke-width="1" fill="none" fill-rule="evenodd"><g id="molecules/widget" transform="translate(-19 -13)"><g id="brand/icon/content/32/general/poin-seru" transform="translate(16 12)"><g id="poin-seru" transform="translate(3 1.5)"><path d="M8.25 5.726v14.55H1.5v-10.05H0v-3a1.5 1.5 0 011.5-1.5h6.75zm2.25 0h6.75a1.5 1.5 0 011.5 1.5v3h-1.5v10.05H10.5V5.726zm-3.45 4.5H2.7v8.85h4.35v-8.85zm9 0H11.7v8.85h4.35v-8.85zm-9-3.3H1.5a.3.3 0 00-.294.24l-.006.06v1.8h5.85v-2.1zm4.65 0v2.1h5.85v-1.8a.3.3 0 00-.24-.293l-.06-.007H11.7z" id="Combined-Shape" fill="#313131"/><path d="M8.294 1.332c.37.456.65 1.015.84 1.59.19-.56.464-1.1.824-1.544 1.244-1.533 3.419-1.799 4.57-.508 1.152 1.29.52 3.671-.721 4.617-.535.408-1.324.696-2.108.847l.001 13.942H7.05V6.366c-.933-.11-1.956-.429-2.605-.924-1.24-.946-1.873-3.326-.722-4.617C4.875-.466 7.05-.2 8.294 1.332zM10.5 6.926H8.25v12.15h2.25V6.926zm3.065-5.328c-.64-.607-1.89-.433-2.675.536-.431.53-.746 1.347-.85 2.157a3.175 3.175 0 00-.003.903l.015.067.056.012c.558.09 2.254-.193 2.971-.74.824-.628 1.131-2.217.554-2.864zm-8.878-.045l-.068.07c-.577.647-.27 2.237.554 2.865.717.547 2.413.83 2.971.74l.056-.012.014-.067c.04-.23.042-.549-.003-.903-.103-.81-.418-1.627-.849-2.157-.786-.969-2.035-1.143-2.675-.536z" id="Combined-Shape" fill="url(#linearGradient-1)"/></g></g></g></g></svg>