<svg xmlns="http://www.w3.org/2000/svg" width="32" height="30"><g fill="#EB2629" fill-rule="evenodd"><path d="M7.856 4.821c.715 0 1.401.23 1.99.662l.124.095.189.163c.27.234.536.477.908.834l.442.425 1.613 1.506c1.383 1.291 1.418 3.044.104 4.357l-.103.1-1.166 1.097-.11.098c.11.188.23.377.366.571l.14.196.15.2.205.258.223.27c1.239 1.42 2.521 2.533 3.91 3.395l.26.16.257.132.131.062 1.278-1.189c.457-.427.98-.722 1.542-.869l.154-.036.157-.029.255-.03.253-.01c.73 0 1.426.244 2.022.704l.127.101.193.175 2.91 2.727c.681.629 1.049 1.402 1.049 2.217 0 .752-.314 1.479-.898 2.096l-.12.122-.336.318-.758.688-.272.261-.111.115-.144.157a4.83 4.83 0 01-2.843 1.42l-.198.023-.298.022-.301.008-.158-.003a6.555 6.555 0 01-.226-.009c-1.571-.094-3.025-.503-4.958-1.358a25.595 25.595 0 01-8.577-6.269c-1.965-2.205-3.298-4.282-4.193-6.535-.603-1.517-.836-2.73-.725-3.994a4.188 4.188 0 011.042-2.41l.124-.136.208-.206 1.83-1.722c.673-.604 1.49-.93 2.34-.93zm.011 2.79a.317.317 0 00-.142.053l-.044.029-.075.058-1.81 1.69c-.31.29-.47.61-.507 1.017-.07.8.097 1.661.548 2.79.771 1.943 1.938 3.756 3.69 5.726a22.634 22.634 0 007.576 5.54c1.304.582 2.326.908 3.307 1.038l.183.022.45.034h.112c.608 0 1.038-.166 1.407-.533.161-.177.326-.346.517-.528l.148-.14.844-.77.177-.172.087-.09c.14-.158.155-.22.055-.34l-.037-.042-.081-.08-2.96-2.763c-.079-.08-.161-.127-.194-.127a.324.324 0 00-.133.062l-.046.033-.077.066-1.815 1.694c-.108.101-.19.166-.302.24a1.898 1.898 0 01-1.051.314c-.255 0-.503-.05-.753-.15l-.125-.054-.252-.136-.554-.263a6.295 6.295 0 01-.497-.262c-1.775-1.048-3.383-2.413-4.908-4.167-.714-.845-1.217-1.572-1.605-2.327l-.095-.19-.152-.331-.015-.045c-.208-.614-.14-1.146.253-1.63l.077-.09.1-.1.045-.049.215-.181.341-.3.241-.22.13-.12.432-.41.45-.418c.22-.207.242-.252.116-.39l-.034-.037-.083-.08-1.956-1.836-.362-.346a18.3 18.3 0 00-.34-.315l-.105-.095-.158-.14c-.1-.093-.187-.14-.233-.14zm9.312-3.794h.059c2.872 0 5.563 1.04 7.583 2.934 2.036 1.91 3.15 4.454 3.136 7.166-.003.61.522 1.107 1.173 1.11h.006c.648 0 1.175-.492 1.179-1.1.016-3.306-1.343-6.409-3.827-8.738-2.466-2.312-5.748-3.582-9.25-3.582h-.065c-.65.003-1.176.5-1.173 1.11.003.609.53 1.1 1.179 1.1z"/><path d="M23.158 8.317c-1.265-1.185-2.478-1.5-3.061-1.65-.628-.164-1.277.181-1.45.77-.174.588.194 1.196.822 1.359.477.124 1.197.31 2.022 1.084.794.744 1.005 1.416 1.144 1.86l.017.055c.152.48.621.791 1.13.791.11 0 .223-.014.335-.045.624-.174.98-.788.796-1.374l-.016-.05c-.182-.58-.52-1.657-1.74-2.8z"/></g></svg>