<svg width="24" height="24" fill="none" xmlns="http://www.w3.org/2000/svg"><path fill-rule="evenodd" clip-rule="evenodd" d="M17.107 13.261a13.657 13.657 0 00-.63-3.665 11.19 11.19 0 001.903-.832 7.73 7.73 0 011.842 4.497h-3.115zm-.63 4.712c.367-1.143.583-2.39.63-3.665h3.115a7.728 7.728 0 01-1.842 4.497 11.29 11.29 0 00-1.903-.832zm-.863 2.008c.181-.326.348-.668.498-1.023.53.177 1.035.388 1.503.631a8.172 8.172 0 01-2.874 1.664c.31-.364.603-.79.873-1.273zM8.14 18.957c.15.355.317.697.498 1.023.27.483.563.908.872 1.272a8.169 8.169 0 01-2.873-1.664c.484-.25.986-.46 1.503-.631zm-.995-4.65c.046 1.276.263 2.522.63 3.665-.679.226-1.319.506-1.904.832a7.735 7.735 0 01-1.842-4.497h3.117zm.63-4.712a13.633 13.633 0 00-.63 3.665H4.03a7.738 7.738 0 011.842-4.497 11.23 11.23 0 001.905.832zm.864-2.007c-.182.325-.349.667-.5 1.022a10.424 10.424 0 01-1.502-.631A8.175 8.175 0 019.51 6.316a7.94 7.94 0 00-.871 1.273zm6.974 0a7.873 7.873 0 00-.872-1.273 8.173 8.173 0 012.874 1.664c-.468.243-.972.455-1.503.631-.148-.35-.314-.69-.498-1.022h-.001zm-2.948 1.646V6.008c.679.27 1.408 1.017 2.002 2.08.145.26.279.533.403.818-.79.185-1.595.295-2.405.329zm0 4.026v-2.977a14.021 14.021 0 002.775-.39c.346 1.092.543 2.224.589 3.367h-3.364zm0 4.025v-2.978h3.364a12.844 12.844 0 01-.589 3.367 13.97 13.97 0 00-2.775-.389zm0 1.048c.819.035 1.63.147 2.405.329a9.032 9.032 0 01-.404.817c-.593 1.064-1.322 1.811-2.001 2.081v-3.227zm-1.078 0v3.227c-.679-.27-1.408-1.017-2.001-2.08a9.047 9.047 0 01-.404-.818c.79-.185 1.595-.295 2.405-.329zm0-4.026v2.978a14.02 14.02 0 00-2.775.389 12.81 12.81 0 01-.589-3.367h3.364zm0-4.024v2.977H8.223a12.81 12.81 0 01.589-3.366c.893.219 1.83.351 2.775.389zm0-1.05a12.838 12.838 0 01-2.405-.328c.124-.285.259-.558.404-.817.593-1.064 1.322-1.811 2.001-2.081v3.227zm.539-4.385c-5.068 0-9.192 4.008-9.192 8.936 0 4.927 4.124 8.936 9.192 8.936 5.069 0 9.192-4.009 9.192-8.936s-4.124-8.937-9.192-8.937v.001z" fill="#EB2628"/><mask id="path-2-outside-1" maskUnits="userSpaceOnUse" x="1.833" y="3.75" width="20" height="20" fill="#000"><path fill="#fff" d="M1.833 3.75h20v20h-20z"/><path d="M12.126 4.75c5.124 0 9.293 4.053 9.293 9.035 0 4.981-4.17 9.034-9.293 9.034-5.124 0-9.293-4.053-9.293-9.034 0-4.982 4.169-9.035 9.293-9.035zm0 .197c-5.013 0-9.091 3.964-9.091 8.838 0 4.873 4.078 8.837 9.09 8.837 5.014 0 9.091-3.964 9.091-8.837 0-4.874-4.077-8.838-9.09-8.838zm-.543 13.29a.1.1 0 01.103.074l.003.023v3.227c0 .07-.073.118-.14.092-.71-.283-1.454-1.053-2.053-2.125a9.176 9.176 0 01-.406-.827.097.097 0 01.07-.134 13.06 13.06 0 012.423-.33zm1.086 0c.823.035 1.641.146 2.424.33a.1.1 0 01.07.135c-.127.29-.262.565-.407.826-.599 1.072-1.343 1.842-2.053 2.125a.103.103 0 01-.137-.066l-.003-.026v-3.227a.1.1 0 01.106-.098zm.096.2v2.972l.027-.014c.585-.298 1.197-.948 1.713-1.832l.073-.13c.106-.19.207-.389.304-.597l.046-.104-.141-.031a12.805 12.805 0 00-1.857-.255l-.165-.008zm-1.28 0l-.163.01c-.629.04-1.252.125-1.857.254l-.142.031.048.104c.063.139.13.273.198.405l.105.193c.53.95 1.174 1.65 1.785 1.961l.027.013v-2.97zm4.634.422l.026.006c.539.18 1.047.393 1.517.638a.097.097 0 01.021.16 8.279 8.279 0 01-2.909 1.683c-.096.032-.175-.08-.11-.156a7.82 7.82 0 00.86-1.256c.179-.319.344-.657.495-1.014a.1.1 0 01.076-.06h.024zm-7.886.061c.15.354.315.693.494 1.014.266.475.554.896.86 1.256.066.076-.013.188-.11.156a8.283 8.283 0 01-2.908-1.684.097.097 0 01.021-.159 10.33 10.33 0 011.517-.638.101.101 0 01.126.055zm7.934.16l-.056.13a10.37 10.37 0 01-.409.817 8.631 8.631 0 01-.514.814l-.148.2.06-.022a8.053 8.053 0 002.291-1.367l.047-.04-.07-.036c-.346-.17-.701-.319-1.064-.448l-.137-.047zm-8.083 0l-.136.048c-.348.124-.69.267-1.023.427l-.111.057.047.04a8.064 8.064 0 002.291 1.367l.059.023-.012-.015a8.127 8.127 0 01-.546-.82l-.104-.18a10.757 10.757 0 01-.41-.818l-.055-.128zm12.138-4.87a.1.1 0 01.101.105 7.825 7.825 0 01-1.865 4.553.102.102 0 01-.127.023 11.131 11.131 0 00-1.888-.825.098.098 0 01-.063-.122c.367-1.139.58-2.377.626-3.64a.1.1 0 01.075-.091l.026-.003h3.115zm-13.077 0a.1.1 0 01.101.095c.046 1.262.26 2.5.626 3.64a.098.098 0 01-.063.121c-.676.226-1.31.503-1.887.825a.102.102 0 01-.128-.023 7.82 7.82 0 01-1.865-4.553.097.097 0 01.076-.102l.024-.003h3.116zm12.967.196h-2.909l-.007.18a13.814 13.814 0 01-.546 3.167l-.05.159.165.057c.508.182.99.393 1.442.63l.148.08.06-.071a7.63 7.63 0 001.692-4.13l.005-.072zm-13.064 0H4.139l.006.071a7.641 7.641 0 001.692 4.13l.06.071.148-.079c.466-.243.948-.453 1.443-.63l.164-.058-.05-.158a13.804 13.804 0 01-.544-3.167l-.009-.18h-.001zm8.98-.196a.098.098 0 01.094.063.1.1 0 01.007.039 12.952 12.952 0 01-.592 3.392.102.102 0 01-.122.065 13.971 13.971 0 00-2.755-.384.098.098 0 01-.093-.073l-.004-.026v-2.978a.1.1 0 01.078-.096l.024-.002h3.364zm-4.441 0a.1.1 0 01.099.076l.003.022v2.978a.1.1 0 01-.098.098 13.98 13.98 0 00-2.754.385.102.102 0 01-.122-.065c-.348-1.1-.547-2.24-.593-3.392a.098.098 0 01.078-.1l.023-.002h3.364zm4.335.196h-3.157v2.787l.22.011c.735.045 1.466.148 2.177.304l.209.05.048-.157a12.77 12.77 0 00.495-2.832l.008-.163zm-4.437 0H8.33l.009.163c.06.971.228 1.936.495 2.832l.048.156.209-.049a14.27 14.27 0 012.178-.304l.217-.011v-2.787zM18.459 8.7a7.825 7.825 0 011.865 4.554.1.1 0 01-.077.102l-.024.003h-3.115a.1.1 0 01-.101-.095 13.546 13.546 0 00-.626-3.64.098.098 0 01.063-.122c.676-.226 1.31-.503 1.887-.824a.103.103 0 01.128.022zM5.922 8.68c.577.321 1.211.598 1.887.824.052.017.08.071.064.122a13.546 13.546 0 00-.626 3.64.1.1 0 01-.075.091l-.026.004H4.029a.098.098 0 01-.094-.065.098.098 0 01-.006-.04 7.826 7.826 0 011.865-4.554.103.103 0 01.128-.022zm9.615 1.187c.341 1.064.545 2.228.592 3.392a.097.097 0 01-.077.099l-.023.004h-3.364a.1.1 0 01-.1-.076l-.002-.023v-2.979a.1.1 0 01.097-.098 13.913 13.913 0 002.755-.385.102.102 0 01.122.066zM8.81 9.798l.027.002c.89.218 1.822.35 2.754.385a.102.102 0 01.094.073l.004.026v2.977a.1.1 0 01-.078.097l-.024.002H8.223a.101.101 0 01-.1-.102c.047-1.166.251-2.33.592-3.392a.099.099 0 01.07-.065l.025-.003zm9.545-.908l-.148.08c-.45.237-.934.448-1.443.63l-.164.057.05.159c.305 1.031.488 2.094.545 3.168l.008.18h2.91l-.006-.072a7.63 7.63 0 00-1.692-4.13l-.06-.072zm-12.459 0l-.06.072a7.634 7.634 0 00-1.691 4.123l-.006.077h2.91l.008-.179c.058-1.073.24-2.137.545-3.168l.049-.159-.164-.056a11.442 11.442 0 01-1.443-.63l-.148-.08zm9.475 1.122l-.21.05c-.71.155-1.442.258-2.177.304l-.219.01v2.787h3.157L15.914 13c-.058-.96-.224-1.91-.495-2.832l-.048-.156zm-6.49 0l-.048.155A12.748 12.748 0 008.338 13l-.009.163h3.156v-2.787l-.217-.012a14.063 14.063 0 01-2.178-.304l-.209-.048zm3.822-4.096c.71.283 1.454 1.053 2.053 2.126.145.26.28.535.406.826a.096.096 0 01-.003.083.099.099 0 01-.066.05 12.91 12.91 0 01-2.424.332.1.1 0 01-.103-.075l-.003-.023V6.008c0-.07.073-.118.14-.092zm-1.018.067l.004.025v3.227a.1.1 0 01-.107.099 13.057 13.057 0 01-2.423-.332.097.097 0 01-.07-.134c.127-.29.262-.566.407-.826.599-1.073 1.343-1.843 2.053-2.125a.102.102 0 01.127.043l.009.023zm1.08.178v2.97l.165-.009c.628-.04 1.252-.125 1.857-.255l.141-.03-.046-.104a8.659 8.659 0 00-.2-.405l-.104-.193c-.53-.95-1.173-1.65-1.786-1.962l-.027-.012zm-1.28 0l-.026.013c-.611.313-1.255 1.011-1.785 1.961-.106.191-.207.39-.304.599l-.046.103.14.032c.606.129 1.23.214 1.858.254l.164.008v-2.97zm-1.897.218c-.327.39-.615.81-.861 1.256-.18.323-.345.662-.494 1.014a.102.102 0 01-.126.056 10.452 10.452 0 01-1.517-.639.096.096 0 01-.021-.158 8.279 8.279 0 012.908-1.685c.097-.031.176.08.11.156zm5.163-.16l.023.004a8.279 8.279 0 012.91 1.684.097.097 0 01-.022.159c-.488.253-.995.466-1.517.639a.101.101 0 01-.126-.056 10.798 10.798 0 00-.494-1.014 7.816 7.816 0 00-.861-1.256c-.054-.064-.009-.151.064-.16h.023zm-5.54.31l-.059.021a8.064 8.064 0 00-2.291 1.367l-.047.04.072.038c.337.164.693.314 1.063.447l.134.046.057-.128c.095-.211.195-.418.301-.62l.108-.198c.17-.304.35-.587.537-.846l.125-.168zm5.89.021l-.061-.022.012.015c.23.301.446.635.65.999.145.26.282.533.41.817l.055.129.136-.047c.363-.129.718-.278 1.063-.447l.071-.035-.047-.042A8.067 8.067 0 0015.1 6.55h.001z"/></mask><path d="M12.126 4.75c5.124 0 9.293 4.053 9.293 9.035 0 4.981-4.17 9.034-9.293 9.034-5.124 0-9.293-4.053-9.293-9.034 0-4.982 4.169-9.035 9.293-9.035zm0 .197c-5.013 0-9.091 3.964-9.091 8.838 0 4.873 4.078 8.837 9.09 8.837 5.014 0 9.091-3.964 9.091-8.837 0-4.874-4.077-8.838-9.09-8.838zm-.543 13.29a.1.1 0 01.103.074l.003.023v3.227c0 .07-.073.118-.14.092-.71-.283-1.454-1.053-2.053-2.125a9.176 9.176 0 01-.406-.827.097.097 0 01.07-.134 13.06 13.06 0 012.423-.33zm1.086 0c.823.035 1.641.146 2.424.33a.1.1 0 01.07.135c-.127.29-.262.565-.407.826-.599 1.072-1.343 1.842-2.053 2.125a.103.103 0 01-.137-.066l-.003-.026v-3.227a.1.1 0 01.106-.098zm.096.2v2.972l.027-.014c.585-.298 1.197-.948 1.713-1.832l.073-.13c.106-.19.207-.389.304-.597l.046-.104-.141-.031a12.805 12.805 0 00-1.857-.255l-.165-.008zm-1.28 0l-.163.01c-.629.04-1.252.125-1.857.254l-.142.031.048.104c.063.139.13.273.198.405l.105.193c.53.95 1.174 1.65 1.785 1.961l.027.013v-2.97zm4.634.422l.026.006c.539.18 1.047.393 1.517.638a.097.097 0 01.021.16 8.279 8.279 0 01-2.909 1.683c-.096.032-.175-.08-.11-.156a7.82 7.82 0 00.86-1.256c.179-.319.344-.657.495-1.014a.1.1 0 01.076-.06h.024zm-7.886.061c.15.354.315.693.494 1.014.266.475.554.896.86 1.256.066.076-.013.188-.11.156a8.283 8.283 0 01-2.908-1.684.097.097 0 01.021-.159 10.33 10.33 0 011.517-.638.101.101 0 01.126.055zm7.934.16l-.056.13a10.37 10.37 0 01-.409.817 8.631 8.631 0 01-.514.814l-.148.2.06-.022a8.053 8.053 0 002.291-1.367l.047-.04-.07-.036c-.346-.17-.701-.319-1.064-.448l-.137-.047zm-8.083 0l-.136.048c-.348.124-.69.267-1.023.427l-.111.057.047.04a8.064 8.064 0 002.291 1.367l.059.023-.012-.015a8.127 8.127 0 01-.546-.82l-.104-.18a10.757 10.757 0 01-.41-.818l-.055-.128zm12.138-4.87a.1.1 0 01.101.105 7.825 7.825 0 01-1.865 4.553.102.102 0 01-.127.023 11.131 11.131 0 00-1.888-.825.098.098 0 01-.063-.122c.367-1.139.58-2.377.626-3.64a.1.1 0 01.075-.091l.026-.003h3.115zm-13.077 0a.1.1 0 01.101.095c.046 1.262.26 2.5.626 3.64a.098.098 0 01-.063.121c-.676.226-1.31.503-1.887.825a.102.102 0 01-.128-.023 7.82 7.82 0 01-1.865-4.553.097.097 0 01.076-.102l.024-.003h3.116zm12.967.196h-2.909l-.007.18a13.814 13.814 0 01-.546 3.167l-.05.159.165.057c.508.182.99.393 1.442.63l.148.08.06-.071a7.63 7.63 0 001.692-4.13l.005-.072zm-13.064 0H4.139l.006.071a7.641 7.641 0 001.692 4.13l.06.071.148-.079c.466-.243.948-.453 1.443-.63l.164-.058-.05-.158a13.804 13.804 0 01-.544-3.167l-.009-.18h-.001zm8.98-.196a.098.098 0 01.094.063.1.1 0 01.007.039 12.952 12.952 0 01-.592 3.392.102.102 0 01-.122.065 13.971 13.971 0 00-2.755-.384.098.098 0 01-.093-.073l-.004-.026v-2.978a.1.1 0 01.078-.096l.024-.002h3.364zm-4.441 0a.1.1 0 01.099.076l.003.022v2.978a.1.1 0 01-.098.098 13.98 13.98 0 00-2.754.385.102.102 0 01-.122-.065c-.348-1.1-.547-2.24-.593-3.392a.098.098 0 01.078-.1l.023-.002h3.364zm4.335.196h-3.157v2.787l.22.011c.735.045 1.466.148 2.177.304l.209.05.048-.157a12.77 12.77 0 00.495-2.832l.008-.163zm-4.437 0H8.33l.009.163c.06.971.228 1.936.495 2.832l.048.156.209-.049a14.27 14.27 0 012.178-.304l.217-.011v-2.787zM18.459 8.7a7.825 7.825 0 011.865 4.554.1.1 0 01-.077.102l-.024.003h-3.115a.1.1 0 01-.101-.095 13.546 13.546 0 00-.626-3.64.098.098 0 01.063-.122c.676-.226 1.31-.503 1.887-.824a.103.103 0 01.128.022zM5.922 8.68c.577.321 1.211.598 1.887.824.052.017.08.071.064.122a13.546 13.546 0 00-.626 3.64.1.1 0 01-.075.091l-.026.004H4.029a.098.098 0 01-.094-.065.098.098 0 01-.006-.04 7.826 7.826 0 011.865-4.554.103.103 0 01.128-.022zm9.615 1.187c.341 1.064.545 2.228.592 3.392a.097.097 0 01-.077.099l-.023.004h-3.364a.1.1 0 01-.1-.076l-.002-.023v-2.979a.1.1 0 01.097-.098 13.913 13.913 0 002.755-.385.102.102 0 01.122.066zM8.81 9.798l.027.002c.89.218 1.822.35 2.754.385a.102.102 0 01.094.073l.004.026v2.977a.1.1 0 01-.078.097l-.024.002H8.223a.101.101 0 01-.1-.102c.047-1.166.251-2.33.592-3.392a.099.099 0 01.07-.065l.025-.003zm9.545-.908l-.148.08c-.45.237-.934.448-1.443.63l-.164.057.05.159c.305 1.031.488 2.094.545 3.168l.008.18h2.91l-.006-.072a7.63 7.63 0 00-1.692-4.13l-.06-.072zm-12.459 0l-.06.072a7.634 7.634 0 00-1.691 4.123l-.006.077h2.91l.008-.179c.058-1.073.24-2.137.545-3.168l.049-.159-.164-.056a11.442 11.442 0 01-1.443-.63l-.148-.08zm9.475 1.122l-.21.05c-.71.155-1.442.258-2.177.304l-.219.01v2.787h3.157L15.914 13c-.058-.96-.224-1.91-.495-2.832l-.048-.156zm-6.49 0l-.048.155A12.748 12.748 0 008.338 13l-.009.163h3.156v-2.787l-.217-.012a14.063 14.063 0 01-2.178-.304l-.209-.048zm3.822-4.096c.71.283 1.454 1.053 2.053 2.126.145.26.28.535.406.826a.096.096 0 01-.003.083.099.099 0 01-.066.05 12.91 12.91 0 01-2.424.332.1.1 0 01-.103-.075l-.003-.023V6.008c0-.07.073-.118.14-.092zm-1.018.067l.004.025v3.227a.1.1 0 01-.107.099 13.057 13.057 0 01-2.423-.332.097.097 0 01-.07-.134c.127-.29.262-.566.407-.826.599-1.073 1.343-1.843 2.053-2.125a.102.102 0 01.127.043l.009.023zm1.08.178v2.97l.165-.009c.628-.04 1.252-.125 1.857-.255l.141-.03-.046-.104a8.659 8.659 0 00-.2-.405l-.104-.193c-.53-.95-1.173-1.65-1.786-1.962l-.027-.012zm-1.28 0l-.026.013c-.611.313-1.255 1.011-1.785 1.961-.106.191-.207.39-.304.599l-.046.103.14.032c.606.129 1.23.214 1.858.254l.164.008v-2.97zm-1.897.218c-.327.39-.615.81-.861 1.256-.18.323-.345.662-.494 1.014a.102.102 0 01-.126.056 10.452 10.452 0 01-1.517-.639.096.096 0 01-.021-.158 8.279 8.279 0 012.908-1.685c.097-.031.176.08.11.156zm5.163-.16l.023.004a8.279 8.279 0 012.91 1.684.097.097 0 01-.022.159c-.488.253-.995.466-1.517.639a.101.101 0 01-.126-.056 10.798 10.798 0 00-.494-1.014 7.816 7.816 0 00-.861-1.256c-.054-.064-.009-.151.064-.16h.023zm-5.54.31l-.059.021a8.064 8.064 0 00-2.291 1.367l-.047.04.072.038c.337.164.693.314 1.063.447l.134.046.057-.128c.095-.211.195-.418.301-.62l.108-.198c.17-.304.35-.587.537-.846l.125-.168zm5.89.021l-.061-.022.012.015c.23.301.446.635.65.999.145.26.282.533.41.817l.055.129.136-.047c.363-.129.718-.278 1.063-.447l.071-.035-.047-.042A8.067 8.067 0 0015.1 6.55h.001z" fill="#EB2628"/><path d="M12.126 4.75c5.124 0 9.293 4.053 9.293 9.035 0 4.981-4.17 9.034-9.293 9.034-5.124 0-9.293-4.053-9.293-9.034 0-4.982 4.169-9.035 9.293-9.035zm0 .197c-5.013 0-9.091 3.964-9.091 8.838 0 4.873 4.078 8.837 9.09 8.837 5.014 0 9.091-3.964 9.091-8.837 0-4.874-4.077-8.838-9.09-8.838zm-.543 13.29a.1.1 0 01.103.074l.003.023v3.227c0 .07-.073.118-.14.092-.71-.283-1.454-1.053-2.053-2.125a9.176 9.176 0 01-.406-.827.097.097 0 01.07-.134 13.06 13.06 0 012.423-.33zm1.086 0c.823.035 1.641.146 2.424.33a.1.1 0 01.07.135c-.127.29-.262.565-.407.826-.599 1.072-1.343 1.842-2.053 2.125a.103.103 0 01-.137-.066l-.003-.026v-3.227a.1.1 0 01.106-.098zm.096.2v2.972l.027-.014c.585-.298 1.197-.948 1.713-1.832l.073-.13c.106-.19.207-.389.304-.597l.046-.104-.141-.031a12.805 12.805 0 00-1.857-.255l-.165-.008zm-1.28 0l-.163.01c-.629.04-1.252.125-1.857.254l-.142.031.048.104c.063.139.13.273.198.405l.105.193c.53.95 1.174 1.65 1.785 1.961l.027.013v-2.97zm4.634.422l.026.006c.539.18 1.047.393 1.517.638a.097.097 0 01.021.16 8.279 8.279 0 01-2.909 1.683c-.096.032-.175-.08-.11-.156a7.82 7.82 0 00.86-1.256c.179-.319.344-.657.495-1.014a.1.1 0 01.076-.06h.024zm-7.886.061c.15.354.315.693.494 1.014.266.475.554.896.86 1.256.066.076-.013.188-.11.156a8.283 8.283 0 01-2.908-1.684.097.097 0 01.021-.159 10.33 10.33 0 011.517-.638.101.101 0 01.126.055zm7.934.16l-.056.13a10.37 10.37 0 01-.409.817 8.631 8.631 0 01-.514.814l-.148.2.06-.022a8.053 8.053 0 002.291-1.367l.047-.04-.07-.036c-.346-.17-.701-.319-1.064-.448l-.137-.047zm-8.083 0l-.136.048c-.348.124-.69.267-1.023.427l-.111.057.047.04a8.064 8.064 0 002.291 1.367l.059.023-.012-.015a8.127 8.127 0 01-.546-.82l-.104-.18a10.757 10.757 0 01-.41-.818l-.055-.128zm12.138-4.87a.1.1 0 01.101.105 7.825 7.825 0 01-1.865 4.553.102.102 0 01-.127.023 11.131 11.131 0 00-1.888-.825.098.098 0 01-.063-.122c.367-1.139.58-2.377.626-3.64a.1.1 0 01.075-.091l.026-.003h3.115zm-13.077 0a.1.1 0 01.101.095c.046 1.262.26 2.5.626 3.64a.098.098 0 01-.063.121c-.676.226-1.31.503-1.887.825a.102.102 0 01-.128-.023 7.82 7.82 0 01-1.865-4.553.097.097 0 01.076-.102l.024-.003h3.116zm12.967.196h-2.909l-.007.18a13.814 13.814 0 01-.546 3.167l-.05.159.165.057c.508.182.99.393 1.442.63l.148.08.06-.071a7.63 7.63 0 001.692-4.13l.005-.072zm-13.064 0H4.139l.006.071a7.641 7.641 0 001.692 4.13l.06.071.148-.079c.466-.243.948-.453 1.443-.63l.164-.058-.05-.158a13.804 13.804 0 01-.544-3.167l-.009-.18h-.001zm8.98-.196a.098.098 0 01.094.063.1.1 0 01.007.039 12.952 12.952 0 01-.592 3.392.102.102 0 01-.122.065 13.971 13.971 0 00-2.755-.384.098.098 0 01-.093-.073l-.004-.026v-2.978a.1.1 0 01.078-.096l.024-.002h3.364zm-4.441 0a.1.1 0 01.099.076l.003.022v2.978a.1.1 0 01-.098.098 13.98 13.98 0 00-2.754.385.102.102 0 01-.122-.065c-.348-1.1-.547-2.24-.593-3.392a.098.098 0 01.078-.1l.023-.002h3.364zm4.335.196h-3.157v2.787l.22.011c.735.045 1.466.148 2.177.304l.209.05.048-.157a12.77 12.77 0 00.495-2.832l.008-.163zm-4.437 0H8.33l.009.163c.06.971.228 1.936.495 2.832l.048.156.209-.049a14.27 14.27 0 012.178-.304l.217-.011v-2.787zM18.459 8.7a7.825 7.825 0 011.865 4.554.1.1 0 01-.077.102l-.024.003h-3.115a.1.1 0 01-.101-.095 13.546 13.546 0 00-.626-3.64.098.098 0 01.063-.122c.676-.226 1.31-.503 1.887-.824a.103.103 0 01.128.022zM5.922 8.68c.577.321 1.211.598 1.887.824.052.017.08.071.064.122a13.546 13.546 0 00-.626 3.64.1.1 0 01-.075.091l-.026.004H4.029a.098.098 0 01-.094-.065.098.098 0 01-.006-.04 7.826 7.826 0 011.865-4.554.103.103 0 01.128-.022zm9.615 1.187c.341 1.064.545 2.228.592 3.392a.097.097 0 01-.077.099l-.023.004h-3.364a.1.1 0 01-.1-.076l-.002-.023v-2.979a.1.1 0 01.097-.098 13.913 13.913 0 002.755-.385.102.102 0 01.122.066zM8.81 9.798l.027.002c.89.218 1.822.35 2.754.385a.102.102 0 01.094.073l.004.026v2.977a.1.1 0 01-.078.097l-.024.002H8.223a.101.101 0 01-.1-.102c.047-1.166.251-2.33.592-3.392a.099.099 0 01.07-.065l.025-.003zm9.545-.908l-.148.08c-.45.237-.934.448-1.443.63l-.164.057.05.159c.305 1.031.488 2.094.545 3.168l.008.18h2.91l-.006-.072a7.63 7.63 0 00-1.692-4.13l-.06-.072zm-12.459 0l-.06.072a7.634 7.634 0 00-1.691 4.123l-.006.077h2.91l.008-.179c.058-1.073.24-2.137.545-3.168l.049-.159-.164-.056a11.442 11.442 0 01-1.443-.63l-.148-.08zm9.475 1.122l-.21.05c-.71.155-1.442.258-2.177.304l-.219.01v2.787h3.157L15.914 13c-.058-.96-.224-1.91-.495-2.832l-.048-.156zm-6.49 0l-.048.155A12.748 12.748 0 008.338 13l-.009.163h3.156v-2.787l-.217-.012a14.063 14.063 0 01-2.178-.304l-.209-.048zm3.822-4.096c.71.283 1.454 1.053 2.053 2.126.145.26.28.535.406.826a.096.096 0 01-.003.083.099.099 0 01-.066.05 12.91 12.91 0 01-2.424.332.1.1 0 01-.103-.075l-.003-.023V6.008c0-.07.073-.118.14-.092zm-1.018.067l.004.025v3.227a.1.1 0 01-.107.099 13.057 13.057 0 01-2.423-.332.097.097 0 01-.07-.134c.127-.29.262-.566.407-.826.599-1.073 1.343-1.843 2.053-2.125a.102.102 0 01.127.043l.009.023zm1.08.178v2.97l.165-.009c.628-.04 1.252-.125 1.857-.255l.141-.03-.046-.104a8.659 8.659 0 00-.2-.405l-.104-.193c-.53-.95-1.173-1.65-1.786-1.962l-.027-.012zm-1.28 0l-.026.013c-.611.313-1.255 1.011-1.785 1.961-.106.191-.207.39-.304.599l-.046.103.14.032c.606.129 1.23.214 1.858.254l.164.008v-2.97zm-1.897.218c-.327.39-.615.81-.861 1.256-.18.323-.345.662-.494 1.014a.102.102 0 01-.126.056 10.452 10.452 0 01-1.517-.639.096.096 0 01-.021-.158 8.279 8.279 0 012.908-1.685c.097-.031.176.08.11.156zm5.163-.16l.023.004a8.279 8.279 0 012.91 1.684.097.097 0 01-.022.159c-.488.253-.995.466-1.517.639a.101.101 0 01-.126-.056 10.798 10.798 0 00-.494-1.014 7.816 7.816 0 00-.861-1.256c-.054-.064-.009-.151.064-.16h.023zm-5.54.31l-.059.021a8.064 8.064 0 00-2.291 1.367l-.047.04.072.038c.337.164.693.314 1.063.447l.134.046.057-.128c.095-.211.195-.418.301-.62l.108-.198c.17-.304.35-.587.537-.846l.125-.168zm5.89.021l-.061-.022.012.015c.23.301.446.635.65.999.145.26.282.533.41.817l.055.129.136-.047c.363-.129.718-.278 1.063-.447l.071-.035-.047-.042A8.067 8.067 0 0015.1 6.55h.001z" stroke="#EB2628" stroke-width=".2" mask="url(#path-2-outside-1)"/><mask id="mask0" maskUnits="userSpaceOnUse" x="14" y="11" width="5" height="5"><path d="M14.475 13.785c0 1.074.896 1.945 2.002 1.945 1.104 0 2-.871 2-1.945 0-1.075-.896-1.945-2.001-1.945s-2.001.87-2.001 1.945z" fill="#fff"/></mask><g mask="url(#mask0)"><path fill-rule="evenodd" clip-rule="evenodd" d="M9.472 20.594H23.48V6.975H9.472v13.619z" fill="#EB2629"/></g></svg>